<?xml version="1.0" encoding="UTF-8" standalone="no"?>
<!-- Created with Inkscape (http://www.inkscape.org/) -->

<svg
   width="488"
   height="90"
   viewBox="0 0 122.62761 22.615748"
   version="1.1"
   id="svg387"
   inkscape:version="1.2 (dc2aedaf03, 2022-05-15)"
   sodipodi:docname="agence-la-panthere.svg"
   xmlns:inkscape="http://www.inkscape.org/namespaces/inkscape"
   xmlns:sodipodi="http://sodipodi.sourceforge.net/DTD/sodipodi-0.dtd"
   xmlns="http://www.w3.org/2000/svg"
   xmlns:svg="http://www.w3.org/2000/svg">
  <sodipodi:namedview
     id="namedview389"
     pagecolor="#ffffff"
     bordercolor="#000000"
     borderopacity="0.25"
     inkscape:showpageshadow="2"
     inkscape:pageopacity="0.0"
     inkscape:pagecheckerboard="0"
     inkscape:deskcolor="#d1d1d1"
     inkscape:document-units="mm"
     showgrid="false"
     inkscape:zoom="1.4324916"
     inkscape:cx="266.66823"
     inkscape:cy="161.60653"
     inkscape:window-width="1920"
     inkscape:window-height="991"
     inkscape:window-x="-9"
     inkscape:window-y="-9"
     inkscape:window-maximized="1"
     inkscape:current-layer="layer1" />
  <defs
     id="defs384">
    <linearGradient
       data-v-fde0c5aa=""
       gradientTransform="scale(1.1104835,0.90050869)"
       id="03eee680-b084-463f-ac63-5d4db96cf555"
       x1="3.7541464"
       y1="14.280817"
       x2="86.340802"
       y2="14.280817"
       gradientUnits="userSpaceOnUse">
      <stop
         data-v-fde0c5aa=""
         offset="0%"
         stop-color="#B4373D"
         stop-opacity="1"
         id="stop504" />
      <stop
         data-v-fde0c5aa=""
         offset="100%"
         stop-color="#B23ACB"
         stop-opacity="1"
         id="stop506" />
    </linearGradient>
    <style
       id="style511">.cls-1{fill:#1d1d1b}</style>
  </defs>
  <g
     inkscape:label="Calque 1"
     inkscape:groupmode="layer"
     id="layer1">
    <g
       data-v-fde0c5aa=""
       id="dff727ea-c914-4c1d-9325-86d683f65698"
       fill="#000000"
       transform="matrix(0.89173261,0,0,0.89173261,31.504748,-0.92311299)">
      <path
         d="m 1.54,14.59 v 0 0 Q 1.41,14.25 1.41,13.65 v 0 0 q 0,-0.6 0.41,-3.56 v 0 0 Q 2.23,7.14 2.23,5.35 v 0 0 Q 2.23,4.93 2.17,4.2 v 0 0 Q 3.23,4.26 3.5,4.7 v 0 0 q 0.14,0.26 0.18,0.49 v 0 0 q 0.04,0.23 0.04,0.73 v 0 0 q 0,0.49 -0.45,3.73 v 0 0 Q 2.81,12.89 2.8,14.27 v 0 0 q 0.07,-0.02 0.25,-0.02 v 0 0 q 3.03,0 4.51,-0.42 v 0 0 q -0.1,0.81 -0.55,1.26 v 0 0 q -0.46,0.45 -1.14,0.45 v 0 0 q -0.2,0 -1.21,-0.09 v 0 0 Q 3.64,15.36 2.69,15.36 v 0 0 q -0.95,0 -1.91,0.18 v 0 0 q 0.19,-0.62 0.76,-0.95 z m 9.21,-4.64 v 0 0 q -0.4,0.7 -0.62,1.44 v 0 0 Q 9.91,12.12 9.91,12.8 v 0 0 q 0,0.67 0.3,1.14 v 0 0 q 0.3,0.47 0.86,0.47 v 0 0 q 0.79,0 1.47,-0.86 v 0 0 q 0.69,-0.87 1.06,-2.09 v 0 0 q 0.37,-1.23 0.37,-2.27 v 0 0 q 0,-1.04 -0.08,-1.71 v 0 0 q 0.33,-0.03 0.42,-0.03 v 0 0 q 1.19,0 1.19,1.22 v 0 0 q 0,0.26 -0.34,2.16 v 0 0 q -0.33,1.9 -0.33,3.04 v 0 0 q 0,1.14 0.43,2.02 v 0 0 q -0.88,-0.18 -1.28,-0.78 v 0 0 q -0.4,-0.59 -0.4,-1.71 v 0 0 q 0,-0.2 0.06,-0.76 v 0 0 q -0.38,1.33 -1.33,2.14 v 0 0 q -0.96,0.82 -1.87,0.82 v 0 0 q -0.92,0 -1.48,-0.7 v 0 0 Q 8.4,14.21 8.4,12.99 v 0 0 q 0,-1.23 0.46,-2.4 v 0 0 Q 9.31,9.42 10.23,8.57 v 0 0 q 0.91,-0.86 2.05,-0.86 v 0 0 q 0.49,0 1.08,0.2 v 0 0 q -0.83,0.21 -1.52,0.77 v 0 0 Q 11.16,9.24 10.75,9.95 Z M 24.84,5.7 v 0 l 0.01,0.17 v 0 q 0,0.53 -0.4,3.48 v 0 0 q -0.4,2.94 -0.4,4.92 v 0 0 q 0,0.88 0.09,1.37 v 0 0 q -0.34,0.03 -0.37,0.03 v 0 0 q -0.63,0 -0.94,-0.29 v 0 0 q -0.3,-0.29 -0.3,-0.94 v 0 0 q 0,-0.65 0.47,-3.98 v 0 0 q 0.46,-3.32 0.46,-4.74 v 0 0 q 0,-1.42 -0.19,-1.86 v 0 0 q 0.45,0.06 0.83,0.35 v 0 0 q 0.39,0.28 0.58,0.76 v 0 0 Q 25.75,4.4 27.06,4.4 v 0 0 q 1.3,0 2.05,0.8 v 0 0 q 0.75,0.81 0.75,1.98 v 0 0 q 0,1.5 -1.09,2.7 v 0 0 q -1.09,1.19 -2.94,1.19 v 0 0 q -0.42,0 -0.77,-0.05 v 0 l -0.04,-0.45 v 0 q 0.94,0 1.64,-0.28 v 0 0 q 0.7,-0.28 1.06,-0.74 v 0 0 q 0.71,-0.9 0.71,-2.1 v 0 0 Q 28.43,6.58 27.88,6 V 6 6 Q 27.33,5.42 26.28,5.42 v 0 0 q -0.63,0 -1.44,0.28 z m 8.12,4.25 v 0 0 q -0.41,0.7 -0.63,1.44 v 0 0 q -0.21,0.73 -0.21,1.41 v 0 0 q 0,0.67 0.3,1.14 v 0 0 q 0.3,0.47 0.86,0.47 v 0 0 q 0.78,0 1.47,-0.86 v 0 0 q 0.68,-0.87 1.05,-2.09 v 0 0 q 0.38,-1.23 0.38,-2.27 v 0 0 q 0,-1.04 -0.09,-1.71 v 0 0 q 0.34,-0.03 0.42,-0.03 v 0 0 q 1.19,0 1.19,1.22 v 0 0 q 0,0.26 -0.33,2.16 v 0 0 q -0.34,1.9 -0.34,3.04 v 0 0 q 0,1.14 0.43,2.02 v 0 0 q -0.88,-0.18 -1.28,-0.78 v 0 0 q -0.4,-0.59 -0.4,-1.71 v 0 0 q 0,-0.2 0.06,-0.76 v 0 0 q -0.38,1.33 -1.33,2.14 v 0 0 q -0.95,0.82 -1.87,0.82 v 0 0 q -0.92,0 -1.48,-0.7 v 0 0 Q 30.6,14.21 30.6,12.99 v 0 0 q 0,-1.23 0.46,-2.4 v 0 0 q 0.45,-1.17 1.37,-2.02 v 0 0 q 0.92,-0.86 2.05,-0.86 v 0 0 q 0.49,0 1.08,0.2 v 0 0 q -0.83,0.21 -1.51,0.77 v 0 0 Q 33.36,9.24 32.96,9.95 Z M 46.35,9.34 v 0 0 q 0,0.64 -0.27,2.27 v 0 0 q -0.27,1.63 -0.27,2.38 v 0 0 q 0,0.74 0.18,1.07 v 0 0 q 0.18,0.33 0.62,0.56 v 0 0 q -0.19,0.02 -0.52,0.02 v 0 0 q -0.95,0 -1.35,-0.36 v 0 0 Q 44.34,14.92 44.34,14 v 0 0 q 0,-0.52 0.28,-2.09 v 0 0 Q 44.9,10.33 44.9,9.59 v 0 0 q 0,-0.92 -0.56,-0.92 v 0 0 q -0.9,0 -1.86,1.58 v 0 0 q -0.96,1.58 -0.96,3.81 v 0 0 q 0,0.88 0.09,1.37 v 0 0 q -0.37,0.03 -0.44,0.03 v 0 0 q -1.23,0 -1.23,-1.21 v 0 0 q 0,-0.28 0.3,-2.15 v 0 0 q 0.29,-1.88 0.29,-2.99 v 0 0 q 0,-1.12 -0.24,-2.05 v 0 0 q 0.83,0.32 1.16,0.91 v 0 0 q 0.33,0.6 0.33,1.36 v 0 0 q 0,0.76 -0.17,1.77 v 0 0 q 0.46,-1.58 1.45,-2.66 v 0 0 Q 44.04,7.35 44.9,7.35 v 0 0 q 1.45,0 1.45,1.99 z m 6.71,-1.58 v 0 0 q 0,0.58 -0.22,0.81 v 0 0 q -0.23,0.22 -0.66,0.22 v 0 h -1.01 v 0 q -0.06,0.37 -0.29,1.74 v 0 0 q -0.48,2.6 -0.48,3.93 v 0 0 q 0,1.33 0.2,1.77 v 0 0 q -0.8,-0.3 -1.14,-0.89 v 0 0 q -0.33,-0.6 -0.33,-1.45 v 0 0 q 0,-0.86 0.1,-1.62 v 0 0 q 0.11,-0.76 0.3,-1.78 v 0 0 q 0.2,-1.03 0.28,-1.64 v 0 0 q -0.8,0.11 -1.57,0.45 v 0 0 Q 48.22,9.07 48.22,8.89 v 0 0 q 0,-0.67 0.44,-0.9 v 0 0 q 0.45,-0.23 1.29,-0.23 v 0 0 q 0.1,-1.04 0.1,-1.55 v 0 0 q 0,-0.51 -0.01,-0.82 v 0 0 q 0,-0.31 0,-0.46 v 0 0 q 0.64,0.1 0.99,0.57 v 0 0 q 0.35,0.46 0.35,1.28 v 0 0 q 0,0.42 -0.07,1.02 v 0 0 q 1.22,0 1.72,-0.41 v 0 0 q 0.03,0.2 0.03,0.37 z m 2.63,3.34 v 0 q 0.46,-1.58 1.42,-2.66 v 0 0 q 0.96,-1.09 1.8,-1.09 v 0 0 q 0.84,0 1.19,0.51 v 0 0 q 0.35,0.51 0.35,1.39 v 0 0 q 0,0.87 -0.27,2.45 v 0 0 q -0.27,1.59 -0.27,2.31 v 0 0 q 0,0.72 0.18,1.05 v 0 0 q 0.18,0.33 0.61,0.56 v 0 0 q -0.18,0.02 -0.51,0.02 v 0 0 q -0.9,0 -1.33,-0.37 v 0 0 Q 58.44,14.9 58.44,14 v 0 0 q 0,-0.52 0.28,-2.09 v 0 0 Q 59,10.33 59,9.59 v 0 0 Q 59,8.67 58.35,8.67 v 0 0 q -0.38,0 -0.84,0.4 v 0 0 q -0.46,0.39 -0.89,1.07 v 0 0 q -0.42,0.68 -0.71,1.73 v 0 0 q -0.29,1.04 -0.29,2.05 v 0 0 q 0,1.02 0.09,1.51 v 0 0 q -0.34,0.03 -0.38,0.03 v 0 0 q -0.66,0 -0.97,-0.28 v 0 0 Q 54.04,14.9 54.04,14.3 v 0 0 q 0,-0.59 0.25,-2.29 v 0 0 Q 55.03,6.8 55.03,4.1 v 0 0 q 0,-1.22 -0.16,-1.64 v 0 0 q 0.81,0.3 1.14,0.87 v 0 0 q 0.33,0.58 0.33,1.58 v 0 0 q 0,0.7 -0.28,2.94 v 0 0 q -0.27,2.24 -0.37,3.25 z M 66.28,8.08 v 0 0 q -0.84,0 -1.42,0.96 v 0 0 q -0.59,0.97 -0.78,2.27 v 0 h 0.39 v 0 q 0.74,0 1.29,-0.21 v 0 0 q 0.54,-0.21 0.84,-0.54 v 0 0 Q 67.16,9.91 67.16,9.1 v 0 0 q 0,-0.46 -0.22,-0.74 v 0 0 Q 66.72,8.08 66.28,8.08 Z m 1.97,5.67 v 0 q -0.64,1.05 -1.41,1.47 v 0 0 q -0.77,0.42 -1.79,0.42 v 0 0 q -1.01,0 -1.77,-0.9 v 0 0 q -0.76,-0.89 -0.76,-2.52 v 0 0 q 0,-1.85 1,-3.3 v 0 0 q 0.49,-0.7 1.28,-1.14 v 0 0 q 0.79,-0.43 1.74,-0.43 v 0 0 q 2.1,0 2.1,2.03 v 0 0 q 0,1.22 -0.94,1.91 v 0 0 q -0.95,0.69 -2.19,0.69 v 0 0 q -0.83,0 -1.49,-0.15 v 0 0 q -0.01,0.14 -0.01,0.43 v 0 0 q 0,2.48 1.47,2.48 v 0 0 q 1.38,0 2.25,-1.37 v 0 0 q 0.52,0.07 0.52,0.38 z M 67.97,6.3 v 0 0 q -0.01,0.15 -0.15,0.29 v 0 0 q -0.13,0.13 -0.3,0.17 v 0 0 Q 67.02,6.13 66.23,5.52 v 0 0 Q 65.44,4.9 64.62,4.65 v 0 0 Q 64.65,3.92 65.3,3.5 v 0 0 q 0.74,0.29 1.53,1.16 v 0 0 q 0.79,0.86 1.14,1.64 z m 4.13,4.58 v 0 Q 72.6,9.06 73.31,8.2 v 0 0 q 0.71,-0.86 1.32,-0.86 v 0 0 q 0.61,0 0.91,0.45 v 0 0 q 0.31,0.46 0.31,1.16 v 0 0 q 0,0.7 -0.36,1.21 v 0 0 q -0.37,0.51 -1.07,0.51 v 0 0 q -0.22,0 -0.35,-0.03 v 0 0 q 0.48,-0.69 0.48,-1.4 v 0 0 q 0,-0.5 -0.41,-0.5 v 0 0 q -0.32,0 -0.68,0.37 v 0 0 q -0.37,0.38 -0.7,1.05 v 0 0 q -0.34,0.68 -0.56,1.75 v 0 0 q -0.23,1.08 -0.23,2.33 v 0 0 q 0,0.14 0.07,1.19 v 0 0 q -0.36,0.03 -0.42,0.03 v 0 0 q -1.23,0 -1.23,-1.21 v 0 0 q 0,-0.28 0.3,-2.15 v 0 0 q 0.29,-1.88 0.29,-2.99 v 0 0 q 0,-1.12 -0.24,-2.05 v 0 0 q 0.83,0.32 1.16,0.91 v 0 0 q 0.33,0.6 0.33,1.39 v 0 0 q 0,0.79 -0.13,1.52 z m 8.25,-2.8 v 0 0 q -0.84,0 -1.43,0.96 v 0 0 q -0.58,0.97 -0.77,2.27 v 0 h 0.39 v 0 q 0.74,0 1.29,-0.21 v 0 0 q 0.54,-0.21 0.84,-0.54 v 0 0 Q 81.23,9.91 81.23,9.1 v 0 0 q 0,-0.46 -0.22,-0.74 v 0 0 Q 80.79,8.08 80.35,8.08 Z m 1.97,5.67 v 0 q -0.64,1.05 -1.41,1.47 v 0 0 q -0.77,0.42 -1.79,0.42 v 0 0 q -1.01,0 -1.77,-0.9 v 0 0 q -0.76,-0.89 -0.76,-2.52 v 0 0 q 0,-1.85 1,-3.3 v 0 0 q 0.49,-0.7 1.28,-1.14 v 0 0 q 0.79,-0.43 1.74,-0.43 v 0 0 q 2.1,0 2.1,2.03 v 0 0 q 0,1.22 -0.94,1.91 v 0 0 q -0.95,0.69 -2.19,0.69 v 0 0 q -0.83,0 -1.49,-0.15 v 0 0 q -0.01,0.14 -0.01,0.43 v 0 0 q 0,2.48 1.47,2.48 v 0 0 q 1.38,0 2.25,-1.37 v 0 0 q 0.52,0.07 0.52,0.38 z"
         id="path501" />
    </g>
    <g
       data-v-fde0c5aa=""
       id="dfe8044c-91b6-4966-9038-a63642c35301"
       stroke="none"
       fill="url(#03eee680-b084-463f-ac63-5d4db96cf555)"
       transform="matrix(0.28396131,0,0,0.28396131,-0.78040679,-3.0021945)"
       style="fill:url(#03eee680-b084-463f-ac63-5d4db96cf555)">
      <defs
         id="defs513">
        <style
           id="style652">.cls-1{fill:#1d1d1b}</style>
      </defs>
      <path
         class="cls-1"
         d="M 44,46.07 V 46 a 5.74,5.74 0 0 0 -3.52,-2.72 h -0.14 a 11.6,11.6 0 0 0 -2.5,-0.47 15.62,15.62 0 0 1 -6.43,-2.38 0.75,0.75 0 0 0 -0.84,1.24 17.29,17.29 0 0 0 2,1.11 c 0,0.1 -0.09,0.2 -0.12,0.31 a 6.09,6.09 0 0 0 4.15,7.51 6.46,6.46 0 0 0 1.78,0.25 5.9,5.9 0 0 0 4.69,-2.28 10.33,10.33 0 0 1 -0.18,3 0.75,0.75 0 0 0 0.47,1 0.76,0.76 0 0 0 0.24,0 0.75,0.75 0 0 0 0.71,-0.51 11.57,11.57 0 0 0 0.23,-4.1 A 4.94,4.94 0 0 0 44,46.07 Z m -4.47,-1.49 a 1.28,1.28 0 0 1 0,0.52 1.3138683,1.3138683 0 1 1 -2.53,-0.71 1.27,1.27 0 0 1 0.09,-0.17 l 0.6,0.07 a 10.89,10.89 0 0 1 1.86,0.3 z m 0.94,4.25 a 4.67,4.67 0 0 1 -3.48,0.32 4.59,4.59 0 0 1 -3.14,-5.67 v -0.12 a 15.83,15.83 0 0 0 1.7,0.55 v 0.06 a 2.8,2.8 0 1 0 5.45,1.17 3.86,3.86 0 0 1 1.48,1.32 4.27,4.27 0 0 1 -1.99,2.37 z m 27.1,-5.76 c 0,-0.11 -0.08,-0.2 -0.12,-0.31 a 17.29,17.29 0 0 0 2,-1.11 0.75,0.75 0 0 0 -0.84,-1.24 15.62,15.62 0 0 1 -6.43,2.38 11.59,11.59 0 0 0 -2.52,0.47 H 59.54 A 5.74,5.74 0 0 0 56,46 v 0.05 a 4.94,4.94 0 0 0 -0.54,1.95 11.57,11.57 0 0 0 0.23,4.1 0.75,0.75 0 0 0 0.71,0.51 0.75,0.75 0 0 0 0.72,-1 10.27,10.27 0 0 1 -0.19,-3 5.9,5.9 0 0 0 4.69,2.28 6.46,6.46 0 0 0 1.78,-0.25 6.09,6.09 0 0 0 4.17,-7.57 z m -5.3,1.22 0.6,-0.07 a 1.26,1.26 0 0 1 0.09,0.17 1.3,1.3 0 0 1 -0.89,1.6 1.27,1.27 0 0 1 -1.63,-1.41 10.89,10.89 0 0 1 1.84,-0.29 z M 63,49.15 a 4.67,4.67 0 0 1 -3.48,-0.32 4.27,4.27 0 0 1 -2,-2.38 3.86,3.86 0 0 1 1.48,-1.31 2.84,2.84 0 0 0 0.07,0.37 2.8,2.8 0 0 0 2.69,2 2.8,2.8 0 0 0 2.65,-3.51 v -0.06 a 15.83,15.83 0 0 0 1.7,-0.55 v 0.12 A 4.59,4.59 0 0 1 63,49.15 Z"
         id="path515"
         style="fill:#1d1d1b" />
      <path
         class="cls-1"
         d="m 46.33,44.89 c -0.16,-2.25 -2,-3.68 -5.15,-3.92 a 11.57,11.57 0 0 1 -4.68,-1.69 0.7502333,0.7502333 0 0 0 -0.83,1.25 12.92,12.92 0 0 0 5.4,1.93 c 1.35,0.1 3.63,0.57 3.77,2.53 a 0.75,0.75 0 0 0 0.75,0.7 h 0.05 a 0.75,0.75 0 0 0 0.69,-0.8 z m 12.98,-2.43 a 12.92,12.92 0 0 0 5.4,-1.93 0.7502333,0.7502333 0 0 0 -0.83,-1.25 11.58,11.58 0 0 1 -4.69,1.72 c -3.11,0.24 -5,1.67 -5.15,3.92 a 0.75,0.75 0 0 0 0.7,0.8 h 0.05 a 0.75,0.75 0 0 0 0.75,-0.7 C 55.68,43 58,42.57 59.31,42.46 Z M 34.64,37.25 A 0.75,0.75 0 1 0 35.8,36.3 l -3.19,-3.92 a 0.75,0.75 0 1 0 -1.16,0.95 z M 38,35.08 a 0.75,0.75 0 0 0 0.7,0.48 0.75,0.75 0 0 0 0.7,-1 l -1.41,-3.68 a 0.75026662,0.75026662 0 1 0 -1.4,0.54 z m 4,0.11 A 0.75,0.75 0 0 0 42.75,34.5 L 43,31.32 A 0.75,0.75 0 0 0 42.31,30.51 0.74,0.74 0 0 0 41.5,31.2 l -0.25,3.19 a 0.75,0.75 0 0 0 0.75,0.8 z"
         id="path517"
         style="fill:#1d1d1b" />
      <path
         class="cls-1"
         d="m 95.31,61 c -3.9,-1.24 -13.08,-1.13 -20.54,-0.79 5,-6.31 5,-12.41 4.11,-15.28 -0.68,-2.15 -1.73,-7.57 -0.39,-9.68 a 1.56,1.56 0 0 1 1.18,-0.77 c 1.76,-0.23 2.08,-2.06 2.33,-3.52 a 8.38,8.38 0 0 1 0.35,-1.54 4.25,4.25 0 0 1 1.22,-1.37 10.59,10.59 0 0 0 3.18,-4.23 C 88.34,19.91 86.21,17.98 86.12,17.9 A 0.73,0.73 0 0 0 85.84,17.77 H 85.7 a 6.16,6.16 0 0 0 -4.81,0.73 c -0.68,0.33 -1.52,0.73 -2.76,1.25 a 6.88,6.88 0 0 1 -8,-1.32 c -4.5,-4.32 -7.67,-5.57 -20.08,-5.57 -12.41,0 -15.54,1.26 -20,5.57 a 6.88,6.88 0 0 1 -8,1.32 51.69,51.69 0 0 1 -2.76,-1.25 6.16,6.16 0 0 0 -4.81,-0.73 h -0.14 a 0.73,0.73 0 0 0 -0.28,0.13 c -0.09,0.08 -2.22,2 -0.63,5.92 a 10.59,10.59 0 0 0 3.18,4.23 4.26,4.26 0 0 1 1.22,1.37 A 8.4,8.4 0 0 1 18,31 c 0.25,1.47 0.56,3.29 2.33,3.52 a 1.56,1.56 0 0 1 1.18,0.77 c 1.34,2.11 0.29,7.53 -0.39,9.68 -0.91,2.87 -0.87,9 4.11,15.28 C 17.77,59.91 8.59,59.8 4.69,61.04 a 0.75108255,0.75108255 0 0 0 0.46,1.43 c 4.09,-1.3 15,-1 21.18,-0.66 h 0.25 l 0.65,0.69 c -7.68,0.11 -12.89,0.64 -15.5,1.58 a 0.75,0.75 0 1 0 0.51,1.41 c 2.58,-0.93 8.3,-1.45 16.56,-1.51 0.35,0.3 0.71,0.59 1.07,0.88 -6.47,0.36 -17,1.21 -21,3 a 0.75,0.75 0 0 0 0.6,1.37 c 4.17,-1.83 16.18,-2.64 22.22,-2.95 l 1,0.72 0.1,0.07 C 26.5,67.68 22.2,68.47 20,69.43 a 0.75,0.75 0 0 0 0.6,1.37 c 2.07,-0.91 6.45,-1.69 12.72,-2.28 A 19.94,19.94 0 0 0 34,74 c 1.63,4.32 3.86,5.38 6.46,5.6 a 5.67,5.67 0 0 0 1.52,1.81 15.18,15.18 0 0 0 -3.39,4.47 0.75026662,0.75026662 0 0 0 1.4,0.54 c 0.27,-0.7 1.08,-2 3.29,-4.19 a 10.86,10.86 0 0 0 2,0.78 11.32,11.32 0 0 0 -0.92,3.43 0.75,0.75 0 0 0 0.71,0.79 0.75,0.75 0 0 0 0.75,-0.71 10.34,10.34 0 0 1 0.91,-3.17 19.89,19.89 0 0 0 6.54,0 10.5,10.5 0 0 1 0.91,3.17 0.75,0.75 0 0 0 0.75,0.71 0.75,0.75 0 0 0 0.71,-0.79 11.32,11.32 0 0 0 -0.89,-3.44 10.86,10.86 0 0 0 2,-0.78 c 2.21,2.19 3,3.49 3.29,4.19 a 0.75026662,0.75026662 0 0 0 1.4,-0.54 15.18,15.18 0 0 0 -3.39,-4.47 5.67,5.67 0 0 0 1.52,-1.81 c 2.6,-0.22 4.83,-1.27 6.45,-5.59 a 19.92,19.92 0 0 0 0.65,-5.45 c 6.27,0.59 10.66,1.37 12.72,2.28 a 0.75,0.75 0 1 0 0.6,-1.37 c -2.22,-1 -6.6,-1.77 -13,-2.38 l 0.8,-0.56 0.31,-0.22 c 6,0.3 18.2,1.11 22.42,3 a 0.75,0.75 0 0 0 0.6,-1.37 c -4.06,-1.78 -14.61,-2.62 -21.07,-3 q 0.57,-0.43 1.11,-0.88 c 8.28,0.05 14,0.57 16.59,1.51 a 0.75,0.75 0 0 0 0.51,-1.41 c -2.6,-0.94 -7.81,-1.47 -15.5,-1.58 l 0.65,-0.69 h 0.25 c 6.15,-0.31 17.09,-0.64 21.18,0.66 A 0.80506211,0.80506211 0 0 0 95.31,61 Z m -42,18.91 a 0.75041655,0.75041655 0 1 0 -1.3,0.75 c 0.16,0.27 0.39,0.7 0.64,1.2 a 18.15,18.15 0 0 1 -5.22,0 c 0.35,-0.71 0.63,-1.19 0.64,-1.2 a 0.75041655,0.75041655 0 1 0 -1.3,-0.75 c 0,0.06 -0.42,0.73 -0.87,1.66 a 7,7 0 0 1 -3.58,-2 h 2.43 a 6,6 0 0 0 5.25,-3.14 6,6 0 0 0 5.29,3.13 h 2.43 a 7,7 0 0 1 -3.58,2 C 53.69,80.66 53.31,80 53.27,79.93 Z m 17.1,-17.26 -0.08,0.06 c -0.84,0.7 -1.77,1.38 -2.68,2 H 66.87 C 67,63 67.32,61.46 67.94,61 A 0.76216796,0.76216796 0 0 0 67,59.8 c -1,0.83 -1.44,2.64 -1.63,4.83 h -0.61 a 0.73,0.73 0 0 0 -0.77,0.73 0.75,0.75 0 0 0 0.73,0.77 h 0.56 v 0.74 H 65.1 a 0.76,0.76 0 0 0 -0.81,0.68 0.75,0.75 0 0 0 0.68,0.81 h 0.21 a 20,20 0 0 1 -0.56,5.05 c -1.41,3.75 -3.1,4.54 -5.55,4.66 h -3.78 a 4.54,4.54 0 0 1 -4.53,-4.46 5.51,5.51 0 0 1 1.16,-0.84 c 1,-0.64 2.47,-1.52 1.93,-2.79 -0.19,-0.44 -0.06,-0.65 1.66,-1.82 l 0.63,-0.43 a 2.48,2.48 0 0 0 1.3,-2 2.08,2.08 0 0 0 -0.95,-1.6 0.74,0.74 0 0 0 -1,0.22 0.76,0.76 0 0 0 0.21,1 c 0.08,0.06 0.26,0.23 0.27,0.37 0.01,0.14 -0.17,0.41 -0.66,0.75 l -0.62,0.43 c -1.63,1.1 -2.91,2 -2.2,3.57 -0.08,0.25 -0.89,0.74 -1.33,1 A 10.22,10.22 0 0 0 50.03,72.24 10.22,10.22 0 0 0 48.9,71.47 7.46,7.46 0 0 1 47.57,70.54 C 48.28,68.87 46.99,68 45.37,66.89 l -0.62,-0.43 c -0.48,-0.34 -0.66,-0.61 -0.66,-0.75 0,-0.14 0.18,-0.31 0.26,-0.37 a 0.75,0.75 0 0 0 -0.81,-1.26 2.08,2.08 0 0 0 -0.95,1.6 2.48,2.48 0 0 0 1.3,2 l 0.63,0.43 c 1.73,1.17 1.85,1.38 1.66,1.82 -0.54,1.28 0.89,2.15 1.93,2.79 a 10.47,10.47 0 0 1 1.16,0.77 4.54,4.54 0 0 1 -4.54,4.52 h -1.56 c -3.72,0.09 -6,0.14 -7.78,-4.66 A 20.07,20.07 0 0 1 34.83,68.3 h 0.21 a 0.7528114,0.7528114 0 1 0 -0.13,-1.5 h -0.14 v -0.74 h 0.56 a 0.75,0.75 0 0 0 0,-1.5 h -0.61 c -0.19,-2.19 -0.58,-4 -1.63,-4.83 A 0.81758792,0.81758792 0 1 0 32.06,61 c 0.62,0.49 0.91,2 1.06,3.71 h -0.95 c -0.85,-0.64 -1.7,-1.31 -2.48,-2 a 0.73,0.73 0 0 0 -0.15,-0.14 c -0.26,-0.23 -0.52,-0.46 -0.76,-0.69 l 2.33,0.15 h 0.06 a 0.75059976,0.75059976 0 0 0 0.06,-1.5 c 0,0 -1.57,-0.12 -4,-0.25 -5.44,-6.19 -5.58,-12.2 -4.72,-14.92 0,-0.08 2.33,-7.62 0.23,-10.93 A 3.07,3.07 0 0 0 20.54,33 c -0.62,-0.08 -0.82,-1 -1,-2.29 A 9.51,9.51 0 0 0 19.1,28.87 5.37,5.37 0 0 0 17.47,26.92 9,9 0 0 1 14.69,23.25 c -1,-2.36 -0.23,-3.66 0.1,-4.08 a 3.19,3.19 0 0 1 2.07,0.54 c 0.07,0.06 7.52,5.52 10.79,5.52 H 28 c -3,2.15 -4.76,4.9 -4.76,7.59 a 0.75,0.75 0 0 0 1.5,0 c 0,-2.81 2.6,-5.89 6.63,-7.86 a 13.71,13.71 0 0 0 4.48,-1.49 0.75,0.75 0 1 0 -0.73,-1.31 15.48,15.48 0 0 1 -7.56,1.58 c -1.25,0 -3.64,-1.21 -5.86,-2.55 A 8.3,8.3 0 0 0 31,19.46 c 4,-3.82 6.49,-5.15 19,-5.15 12.51,0 15,1.34 19,5.15 a 8.18,8.18 0 0 0 5.77,2.45 9.77,9.77 0 0 0 3.44,-0.68 c -2.21,1.33 -4.6,2.53 -5.84,2.53 a 15.48,15.48 0 0 1 -7.56,-1.58 0.75,0.75 0 0 0 -0.73,1.31 13.72,13.72 0 0 0 4.51,1.51 c 4,2 6.63,5 6.63,7.86 a 0.75,0.75 0 0 0 1.5,0 c 0,-2.7 -1.77,-5.45 -4.76,-7.59 h 0.44 c 3.27,0 10.72,-5.46 10.79,-5.52 a 3.19,3.19 0 0 1 2.06,-0.54 c 0.33,0.43 1.05,1.73 0.1,4.08 a 9,9 0 0 1 -2.78,3.67 5.37,5.37 0 0 0 -1.63,1.95 9.49,9.49 0 0 0 -0.44,1.84 c -0.23,1.33 -0.42,2.21 -1,2.29 a 3.07,3.07 0 0 0 -2.25,1.45 c -2.11,3.31 0.2,10.86 0.23,10.93 0.87,2.73 0.72,8.74 -4.72,14.92 -2.39,0.13 -4,0.25 -4,0.25 a 0.75059976,0.75059976 0 0 0 0.06,1.5 h 0.06 l 2.33,-0.15 c -0.21,0.23 -0.52,0.47 -0.8,0.71 z"
         id="path519"
         style="fill:#1d1d1b" />
      <path
         class="cls-1"
         d="m 64.77,37.53 a 0.75,0.75 0 0 0 0.58,-0.28 l 3.19,-3.92 a 0.75,0.75 0 1 0 -1.16,-0.95 l -3.19,3.92 a 0.75,0.75 0 0 0 0.58,1.22 z m -3.7,-2.02 a 0.74,0.74 0 0 0 0.27,0 0.75,0.75 0 0 0 0.7,-0.48 l 1.41,-3.68 a 0.75026662,0.75026662 0 1 0 -1.4,-0.54 l -1.41,3.68 a 0.75,0.75 0 0 0 0.43,1.02 z M 58,35.2 a 0.75,0.75 0 0 0 0.69,-0.81 L 58.44,31.2 a 0.75239617,0.75239617 0 0 0 -1.5,0.12 l 0.25,3.19 A 0.75,0.75 0 0 0 58,35.2 Z"
         id="path521"
         style="fill:#1d1d1b" />
      <circle
         class="cls-1"
         cx="38.130001"
         cy="69.839996"
         r="1.05"
         id="circle523"
         style="fill:#1d1d1b" />
      <circle
         class="cls-1"
         cx="38.48"
         cy="73.410004"
         r="1.05"
         id="circle525"
         style="fill:#1d1d1b" />
      <circle
         class="cls-1"
         cx="41.220001"
         cy="75.760002"
         r="1.05"
         id="circle527"
         style="fill:#1d1d1b" />
      <circle
         class="cls-1"
         cx="42.139999"
         cy="72.110001"
         r="1.05"
         id="circle529"
         style="fill:#1d1d1b" />
      <circle
         class="cls-1"
         cx="45.060001"
         cy="73.949997"
         r="1.05"
         id="circle531"
         style="fill:#1d1d1b" />
      <circle
         class="cls-1"
         cx="61.869999"
         cy="69.839996"
         r="1.05"
         id="circle533"
         style="fill:#1d1d1b" />
      <circle
         class="cls-1"
         cx="61.52"
         cy="73.410004"
         r="1.05"
         id="circle535"
         style="fill:#1d1d1b" />
      <circle
         class="cls-1"
         cx="58.779999"
         cy="75.760002"
         r="1.05"
         id="circle537"
         style="fill:#1d1d1b" />
      <circle
         class="cls-1"
         cx="57.860001"
         cy="72.110001"
         r="1.05"
         id="circle539"
         style="fill:#1d1d1b" />
      <circle
         class="cls-1"
         cx="54.939999"
         cy="73.949997"
         r="1.05"
         id="circle541"
         style="fill:#1d1d1b" />
      <path
         class="cls-1"
         d="m 53.56,52.5 a 0.75,0.75 0 0 0 -0.81,0.69 9.21,9.21 0 0 1 -2.75,5.39 9.16,9.16 0 0 1 -2.73,-5.4 0.75239617,0.75239617 0 0 0 -1.5,0.12 11,11 0 0 0 3.73,6.86 0.75,0.75 0 0 0 0.47,0.17 0.75,0.75 0 0 0 0.47,-0.17 11,11 0 0 0 3.73,-6.86 0.75,0.75 0 0 0 -0.61,-0.8 z m -13.19,2.7 a 0.75,0.75 0 0 0 -1,0.27 c -0.2,0.35 -0.46,0.72 -0.73,1.11 -1.34,1.94 -3.36,4.88 -0.51,8 a 0.75,0.75 0 0 0 1.1,-1 c -1.89,-2.05 -0.93,-3.82 0.64,-6.1 0.29,-0.43 0.57,-0.83 0.79,-1.21 A 0.75,0.75 0 0 0 40.37,55.2 Z m 20.32,0.27 a 0.75041655,0.75041655 0 1 0 -1.3,0.75 c 0.22,0.38 0.5,0.78 0.79,1.21 1.57,2.28 2.53,4.05 0.64,6.1 a 0.75,0.75 0 1 0 1.1,1 c 2.85,-3.09 0.83,-6 -0.51,-8 -0.25,-0.34 -0.51,-0.71 -0.72,-1.06 z M 41.89,65 a 0.75108255,0.75108255 0 0 0 -1.43,-0.46 4.13,4.13 0 0 0 1.91,4.82 0.75041655,0.75041655 0 0 0 0.75,-1.3 A 2.62,2.62 0 0 1 41.89,65 Z m 15.73,4.33 a 4.13,4.13 0 0 0 1.91,-4.82 0.75108255,0.75108255 0 0 0 -1.43,0.46 2.62,2.62 0 0 1 -1.23,3.03 0.75041655,0.75041655 0 0 0 0.75,1.3 z m -4.74,-4.18 a 3.83,3.83 0 0 1 -5.77,0 0.76576759,0.76576759 0 0 0 -1.16,1 5.32,5.32 0 0 0 8.08,0 0.76576759,0.76576759 0 0 0 -1.16,-1 z M 30.51,50.52 a 0.75,0.75 0 1 0 -0.72,1.31 c 2.63,1.45 3.77,3.59 3.77,4.36 a 0.75,0.75 0 0 0 1.5,0 c 0,-1.55 -1.7,-4.1 -4.55,-5.67 z m 40.08,0.3 a 0.75,0.75 0 0 0 -1,-0.3 C 66.72,52.09 65,54.64 65,56.2 a 0.75,0.75 0 0 0 1.5,0 c 0,-0.77 1.14,-2.92 3.77,-4.36 a 0.75,0.75 0 0 0 0.32,-1.02 z"
         id="path543"
         style="fill:#1d1d1b" />
    </g>
    <text
       xml:space="preserve"
       style="font-style:normal;font-variant:normal;font-weight:normal;font-stretch:normal;font-size:4.99754px;font-family:sans-serif;-inkscape-font-specification:'sans-serif, Normal';font-variant-ligatures:normal;font-variant-caps:normal;font-variant-numeric:normal;font-variant-east-asian:normal;letter-spacing:0.267725px;fill:#000000;stroke-width:0.268147"
       x="31.220963"
       y="20.049791"
       id="text244"><tspan
         sodipodi:role="line"
         id="tspan242"
         style="font-style:normal;font-variant:normal;font-weight:bold;font-stretch:normal;font-size:4.99754px;font-family:sans-serif;-inkscape-font-specification:'sans-serif Bold';font-variant-ligatures:normal;font-variant-caps:normal;font-variant-numeric:normal;font-variant-east-asian:normal;fill:#000000;stroke-width:0.268148"
         x="31.220963"
         y="20.049791">AGENCE DE WEB DESIGN</tspan></text>
  </g>
</svg>
